<svg xmlns="http://www.w3.org/2000/svg" width="450" height="78" viewBox="0 0 450 78"><g fill-rule="nonzero" fill="none"><path d="M.419 65.423c0-1.054.15-2.011.448-2.872.298-.86.716-1.594 1.251-2.2a5.604 5.604 0 0 1 1.91-1.41 5.812 5.812 0 0 1 2.424-.5c.773 0 1.418.119 1.936.356s.944.505 1.278.803c.386.334.694.712.922 1.133h.053l-.053-.263a1.408 1.408 0 0 1-.026-.277v-5.835c0-.58.29-.87.87-.87h.816c.58 0 .87.29.87.87v16.86c0 .58-.29.87-.87.87h-.685c-.58 0-.87-.272-.87-.817v-.764c0-.228.01-.386.027-.474 0-.07.009-.132.026-.185h-.053c-.245.492-.57.923-.974 1.291-.352.317-.804.606-1.357.87-.553.263-1.243.395-2.068.395-.896 0-1.708-.171-2.437-.514A5.32 5.32 0 0 1 2 70.454c-.51-.614-.9-1.348-1.173-2.2C.555 67.404.42 66.46.42 65.424zm2.608 0c0 .72.092 1.374.277 1.962.184.589.443 1.09.777 1.502a3.56 3.56 0 0 0 1.185.961c.457.229.966.343 1.528.343.492 0 .97-.092 1.436-.277.466-.184.874-.47 1.225-.856.351-.386.637-.882.856-1.488.22-.606.33-1.33.33-2.174 0-.597-.08-1.177-.237-1.739a4.743 4.743 0 0 0-.712-1.501 3.734 3.734 0 0 0-1.185-1.067c-.474-.272-1.028-.408-1.66-.408-.527 0-1.019.105-1.475.316-.457.21-.86.518-1.212.922-.351.404-.628.9-.83 1.488-.202.589-.303 1.26-.303 2.016zm12.725 3.03c0-.686.131-1.279.395-1.78.263-.5.614-.917 1.054-1.25.439-.334.935-.606 1.488-.817a9.447 9.447 0 0 1 1.726-.474 15.592 15.592 0 0 1 1.752-.211c.57-.035 1.084-.053 1.54-.053h.686v-.342c0-.545-.075-1.006-.224-1.383a2.29 2.29 0 0 0-.62-.91 2.331 2.331 0 0 0-.921-.487 4.258 4.258 0 0 0-1.133-.145c-.668 0-1.26.097-1.779.29-.518.193-.926.378-1.225.554-.509.245-.904.14-1.185-.317l-.21-.368c-.282-.527-.185-.922.289-1.186.404-.228.97-.474 1.7-.738.728-.263 1.602-.395 2.62-.395 1.669 0 2.96.444 3.873 1.33.913.888 1.37 2.183 1.37 3.886v7.561c0 .58-.29.87-.87.87h-.658c-.58 0-.87-.29-.87-.87v-1.132c0-.106.01-.194.027-.264l.053-.21h-.053a5.33 5.33 0 0 1-1.001 1.396c-.351.35-.8.671-1.344.961-.544.29-1.211.435-2.002.435-.58 0-1.141-.088-1.686-.264a4.28 4.28 0 0 1-1.436-.777 3.877 3.877 0 0 1-.988-1.238c-.245-.483-.368-1.04-.368-1.673zm2.581-.212c0 .527.207 1.015.62 1.463.412.447 1.031.671 1.857.671a3.01 3.01 0 0 0 1.515-.382 3.642 3.642 0 0 0 1.132-1 4.84 4.84 0 0 0 .712-1.37c.167-.501.25-.997.25-1.49v-.579h-.685c-.474 0-1.019.022-1.633.066a7.748 7.748 0 0 0-1.765.33 3.647 3.647 0 0 0-1.423.803c-.386.36-.58.856-.58 1.488zm12.593-7.27h-.922c-.562 0-.843-.29-.843-.87v-.343c0-.58.29-.869.87-.869h.948v-2.924c0-.58.29-.87.87-.87h.763c.58 0 .87.29.87.87v2.924H35.8c.58 0 .87.29.87.87v.342c0 .58-.282.87-.844.87h-2.344v5.927c0 .632.087 1.141.263 1.528.176.386.39.685.645.896.255.21.527.355.817.434.29.08.558.128.804.145.35.035.592.114.724.237.132.123.198.334.198.633v.553c0 .58-.352.87-1.054.87-.667 0-1.3-.097-1.897-.29a4.274 4.274 0 0 1-1.567-.896 4.45 4.45 0 0 1-1.08-1.528c-.273-.615-.409-1.344-.409-2.187V60.97zm7.298 7.481c0-.685.131-1.278.395-1.778.263-.5.614-.918 1.054-1.251.439-.334.935-.606 1.488-.817a9.447 9.447 0 0 1 1.726-.474 15.592 15.592 0 0 1 1.752-.211c.57-.035 1.084-.053 1.54-.053h.686v-.342c0-.545-.075-1.006-.224-1.383a2.29 2.29 0 0 0-.62-.91 2.331 2.331 0 0 0-.921-.487 4.258 4.258 0 0 0-1.133-.145c-.668 0-1.26.097-1.779.29-.518.193-.926.378-1.225.554-.509.245-.904.14-1.185-.317l-.21-.368c-.282-.527-.185-.922.289-1.186.404-.228.97-.474 1.7-.738.728-.263 1.602-.395 2.62-.395 1.669 0 2.96.444 3.873 1.33.913.888 1.37 2.183 1.37 3.886v7.561c0 .58-.29.87-.87.87h-.658c-.58 0-.87-.29-.87-.87v-1.132c0-.106.01-.194.027-.264l.053-.21h-.053a5.33 5.33 0 0 1-1.001 1.396c-.351.35-.8.671-1.344.961-.544.29-1.211.435-2.002.435-.58 0-1.141-.088-1.686-.264a4.28 4.28 0 0 1-1.436-.777 3.877 3.877 0 0 1-.988-1.238c-.245-.483-.368-1.04-.368-1.673zm2.581-.21c0 .526.207 1.014.62 1.462.412.447 1.031.671 1.857.671a3.01 3.01 0 0 0 1.515-.382 3.642 3.642 0 0 0 1.132-1 4.84 4.84 0 0 0 .712-1.37c.167-.501.25-.997.25-1.49v-.579h-.685c-.474 0-1.019.022-1.633.066a7.748 7.748 0 0 0-1.765.33 3.647 3.647 0 0 0-1.423.803c-.386.36-.58.856-.58 1.488zM60.09 60.97h-.843c-.58 0-.87-.29-.87-.87v-.342c0-.58.29-.869.87-.869h.843v-.632c0-1.054.188-1.901.566-2.542.378-.642.821-1.138 1.33-1.489a4.347 4.347 0 0 1 1.581-.698c.545-.114.993-.171 1.344-.171h.316c.58 0 .87.29.87.87v.5c0 .298-.08.509-.238.632-.158.123-.386.202-.685.237a7.509 7.509 0 0 0-.803.105c-.29.053-.562.176-.817.37-.255.192-.47.469-.645.83-.176.36-.264.846-.264 1.461v.527h2.292c.58 0 .87.29.87.87v.342c0 .58-.29.87-.87.87h-2.292v10.247c0 .58-.29.87-.87.87h-.816c-.58 0-.87-.29-.87-.87V60.97zm6.718 4.426a6.78 6.78 0 0 1 .566-2.78 7.02 7.02 0 0 1 1.528-2.212 6.768 6.768 0 0 1 2.266-1.449 7.586 7.586 0 0 1 2.805-.514c1.001 0 1.937.171 2.806.514.87.342 1.629.825 2.279 1.449a6.916 6.916 0 0 1 1.541 2.213 6.78 6.78 0 0 1 .566 2.78c0 1.018-.188 1.953-.566 2.805a6.916 6.916 0 0 1-1.541 2.213 7.093 7.093 0 0 1-2.279 1.462 7.418 7.418 0 0 1-2.806.527 7.418 7.418 0 0 1-2.805-.527 6.94 6.94 0 0 1-2.266-1.462 7.02 7.02 0 0 1-1.528-2.213c-.378-.852-.566-1.787-.566-2.806zm2.581 0c0 .703.123 1.348.37 1.937.245.588.574 1.093.987 1.514a4.471 4.471 0 0 0 3.227 1.344c.633 0 1.225-.119 1.779-.356a4.624 4.624 0 0 0 1.462-.988c.421-.421.75-.926.988-1.514a5.134 5.134 0 0 0 .355-1.937c0-.685-.118-1.317-.355-1.897a4.514 4.514 0 0 0-.988-1.501 4.624 4.624 0 0 0-1.462-.988 4.466 4.466 0 0 0-1.779-.356 4.466 4.466 0 0 0-3.227 1.344 4.8 4.8 0 0 0-1.357 3.398zm14.595-5.77c0-.579.29-.869.87-.869h.737c.58 0 .87.29.87.87v1.528c0 .14-.005.272-.013.395a2.575 2.575 0 0 1-.04.316 1.774 1.774 0 0 0-.026.29h.052c.14-.44.338-.87.593-1.291.255-.422.558-.795.909-1.12a4.588 4.588 0 0 1 1.172-.79c.43-.202.9-.303 1.41-.303.562 0 .843.29.843.87v.737c0 .58-.316.87-.949.87-.65 0-1.216.162-1.699.487a4.227 4.227 0 0 0-1.212 1.251 5.706 5.706 0 0 0-.724 1.752 8.386 8.386 0 0 0-.237 1.963v4.636c0 .58-.29.87-.87.87h-.816c-.58 0-.87-.29-.87-.87V59.627zm14.885 8.826c0-.685.132-1.278.395-1.778.264-.5.615-.918 1.054-1.251.44-.334.935-.606 1.488-.817a9.447 9.447 0 0 1 1.726-.474 15.592 15.592 0 0 1 1.752-.211c.57-.035 1.085-.053 1.541-.053h.685v-.342c0-.545-.075-1.006-.224-1.383a2.29 2.29 0 0 0-.619-.91 2.331 2.331 0 0 0-.922-.487 4.258 4.258 0 0 0-1.133-.145c-.667 0-1.26.097-1.778.29-.518.193-.927.378-1.225.554-.51.245-.905.14-1.186-.317l-.21-.368c-.281-.527-.185-.922.29-1.186.403-.228.97-.474 1.699-.738.729-.263 1.602-.395 2.621-.395 1.668 0 2.96.444 3.873 1.33.913.888 1.37 2.183 1.37 3.886v7.561c0 .58-.29.87-.87.87h-.658c-.58 0-.87-.29-.87-.87v-1.132c0-.106.009-.194.027-.264l.052-.21h-.052a5.33 5.33 0 0 1-1.002 1.396c-.35.35-.799.671-1.343.961-.545.29-1.212.435-2.002.435-.58 0-1.142-.088-1.686-.264a4.28 4.28 0 0 1-1.436-.777 3.876 3.876 0 0 1-.988-1.238c-.246-.483-.369-1.04-.369-1.673zm2.582-.21c0 .526.206 1.014.619 1.462.413.447 1.032.671 1.857.671a3.01 3.01 0 0 0 1.515-.382 3.642 3.642 0 0 0 1.133-1 4.84 4.84 0 0 0 .711-1.37c.167-.501.25-.997.25-1.49v-.579h-.685c-.474 0-1.018.022-1.633.066a7.748 7.748 0 0 0-1.765.33 3.647 3.647 0 0 0-1.423.803c-.386.36-.58.856-.58 1.488zm17.888-2.82c0-1.053.15-2.01.448-2.871.298-.86.715-1.594 1.251-2.2a5.604 5.604 0 0 1 1.91-1.41 5.812 5.812 0 0 1 2.424-.5c.773 0 1.418.119 1.936.356s.944.505 1.278.803c.386.334.694.712.922 1.133h.053l-.053-.263a1.408 1.408 0 0 1-.026-.277v-5.835c0-.58.29-.87.869-.87h.817c.58 0 .869.29.869.87v16.86c0 .58-.29.87-.87.87h-.684c-.58 0-.87-.272-.87-.817v-.764c0-.228.01-.386.027-.474 0-.07.008-.132.026-.185h-.053c-.246.492-.57.923-.974 1.291-.352.317-.804.606-1.357.87-.553.263-1.243.395-2.068.395-.896 0-1.708-.171-2.437-.514a5.32 5.32 0 0 1-1.857-1.436c-.51-.614-.9-1.348-1.173-2.2-.272-.851-.408-1.795-.408-2.831zm2.608 0c0 .72.092 1.375.277 1.963.184.589.443 1.09.777 1.502a3.56 3.56 0 0 0 1.185.961c.457.229.966.343 1.528.343.492 0 .97-.092 1.436-.277.465-.184.874-.47 1.225-.856.351-.386.637-.882.856-1.488.22-.606.33-1.33.33-2.174 0-.597-.08-1.177-.237-1.739a4.743 4.743 0 0 0-.712-1.501 3.734 3.734 0 0 0-1.185-1.067c-.475-.272-1.028-.408-1.66-.408-.527 0-1.019.105-1.475.316-.457.21-.86.518-1.212.922-.351.404-.628.9-.83 1.488-.202.589-.303 1.26-.303 2.016zm14.648-9.325c-.58 0-.87-.29-.87-.87v-.87c0-.579.29-.869.87-.869h.895c.58 0 .87.29.87.87v.87c0 .579-.29.869-.87.869h-.895zm-.843 3.53c0-.58.29-.87.869-.87h.817c.58 0 .869.29.869.87v11.591c0 .58-.29.87-.87.87h-.816c-.58 0-.87-.29-.87-.87V59.627zm4.9.131c-.106-.298-.097-.54.026-.724.123-.184.343-.277.659-.277h.895c.492 0 .817.237.975.712l3.003 8.298c.07.193.137.391.198.593.061.202.11.4.145.593.053.21.097.421.132.632h.052l.158-.632c.036-.193.08-.391.132-.593.053-.202.114-.4.185-.593l3.003-8.298c.158-.475.483-.712.975-.712h.895c.316 0 .54.093.672.277.132.184.136.426.013.724l-4.32 11.645c-.158.456-.483.685-.975.685H146c-.492 0-.817-.229-.975-.685l-4.373-11.645zm13.567 5.665c0-1.054.171-2.011.514-2.872.342-.86.808-1.594 1.396-2.2a6.132 6.132 0 0 1 2.108-1.41c.816-.333 1.699-.5 2.647-.5.914 0 1.73.158 2.45.474a4.98 4.98 0 0 1 1.805 1.318c.483.562.852 1.23 1.107 2.002.254.773.382 1.624.382 2.555a.886.886 0 0 1-.25.633.85.85 0 0 1-.646.263h-8.905c.035.72.185 1.361.448 1.923a4.485 4.485 0 0 0 1.028 1.423c.421.386.9.676 1.435.87a4.97 4.97 0 0 0 1.7.289c.737 0 1.378-.119 1.923-.356.544-.237.966-.47 1.264-.698.527-.28.922-.184 1.186.29l.237.395c.14.228.189.444.145.646-.044.202-.18.373-.408.513a7.473 7.473 0 0 1-1.752.922c-.378.14-.8.26-1.265.356a7.316 7.316 0 0 1-1.488.145c-1.054 0-2.011-.18-2.872-.54a6.846 6.846 0 0 1-2.226-1.475 6.542 6.542 0 0 1-1.45-2.213 7.31 7.31 0 0 1-.513-2.753zM164.072 64c-.035-1.177-.364-2.064-.988-2.66-.623-.598-1.374-.897-2.252-.897-.984 0-1.831.312-2.543.936-.71.623-1.163 1.497-1.356 2.621h7.14zm5.348-4.373c0-.58.29-.87.87-.87h.737c.58 0 .87.29.87.87v1.528c0 .14-.005.272-.014.395a2.575 2.575 0 0 1-.04.316 1.774 1.774 0 0 0-.026.29h.053c.14-.44.338-.87.593-1.291.255-.422.558-.795.909-1.12a4.588 4.588 0 0 1 1.172-.79c.43-.202.9-.303 1.41-.303.562 0 .843.29.843.87v.737c0 .58-.317.87-.949.87-.65 0-1.216.162-1.699.487a4.227 4.227 0 0 0-1.212 1.251 5.706 5.706 0 0 0-.724 1.752 8.386 8.386 0 0 0-.237 1.963v4.636c0 .58-.29.87-.87.87h-.817c-.58 0-.869-.29-.869-.87V59.627zm8.773 11.328c-.228-.14-.351-.316-.369-.527-.018-.21.044-.43.184-.659l.264-.368c.176-.229.356-.352.54-.37.184-.017.408.045.672.185.298.193.72.422 1.264.685.545.264 1.212.395 2.003.395.667 0 1.211-.153 1.633-.46.421-.308.632-.743.632-1.305 0-.439-.171-.79-.514-1.054a5.967 5.967 0 0 0-1.277-.724c-.51-.22-1.058-.43-1.647-.632a7.693 7.693 0 0 1-1.646-.79 4.629 4.629 0 0 1-1.278-1.2c-.343-.474-.514-1.088-.514-1.843 0-.633.128-1.19.382-1.673a3.425 3.425 0 0 1 1.04-1.199 4.9 4.9 0 0 1 1.542-.724 6.776 6.776 0 0 1 1.857-.25c.931 0 1.7.122 2.305.368.606.246 1.067.465 1.384.659.245.123.39.285.434.487.044.202-.004.426-.145.672l-.237.395c-.246.44-.632.536-1.159.29a8.932 8.932 0 0 0-1.093-.5c-.448-.176-.988-.264-1.62-.264-.633 0-1.164.14-1.594.421-.43.281-.646.703-.646 1.265 0 .439.171.795.514 1.067.342.272.768.514 1.278.724.509.211 1.058.422 1.646.633.589.21 1.137.47 1.647.777.51.307.935.702 1.277 1.185.343.483.514 1.102.514 1.858a3.62 3.62 0 0 1-.342 1.567c-.229.483-.554.9-.975 1.251a4.559 4.559 0 0 1-1.515.817 6.267 6.267 0 0 1-1.963.29 7.598 7.598 0 0 1-1.54-.145 7.287 7.287 0 0 1-1.252-.369 7.995 7.995 0 0 1-.988-.474 5.654 5.654 0 0 1-.698-.461zm11.25-5.532c0-1.054.17-2.011.513-2.872.342-.86.808-1.594 1.396-2.2a6.132 6.132 0 0 1 2.108-1.41c.816-.333 1.699-.5 2.647-.5.914 0 1.73.158 2.45.474a4.98 4.98 0 0 1 1.805 1.318c.483.562.852 1.23 1.106 2.002.255.773.382 1.624.382 2.555a.886.886 0 0 1-.25.633.85.85 0 0 1-.645.263h-8.905c.035.72.185 1.361.448 1.923a4.485 4.485 0 0 0 1.027 1.423c.422.386.9.676 1.436.87a4.97 4.97 0 0 0 1.7.289c.737 0 1.378-.119 1.923-.356.544-.237.966-.47 1.264-.698.527-.28.922-.184 1.186.29l.237.395c.14.228.189.444.145.646-.044.202-.18.373-.409.513a7.473 7.473 0 0 1-1.752.922c-.377.14-.799.26-1.264.356a7.316 7.316 0 0 1-1.489.145c-1.053 0-2.01-.18-2.871-.54a6.846 6.846 0 0 1-2.226-1.475 6.542 6.542 0 0 1-1.45-2.213 7.31 7.31 0 0 1-.513-2.753zM199.294 64c-.035-1.177-.364-2.064-.988-2.66-.623-.598-1.374-.897-2.252-.897-.984 0-1.831.312-2.543.936-.711.623-1.163 1.497-1.356 2.621h7.139zm10.854 4.452c0-.685.132-1.278.395-1.778.264-.5.615-.918 1.054-1.251.439-.334.935-.606 1.488-.817a9.447 9.447 0 0 1 1.726-.474 15.592 15.592 0 0 1 1.752-.211c.57-.035 1.084-.053 1.541-.053h.685v-.342c0-.545-.075-1.006-.224-1.383a2.29 2.29 0 0 0-.619-.91 2.331 2.331 0 0 0-.922-.487 4.258 4.258 0 0 0-1.133-.145c-.667 0-1.26.097-1.778.29-.518.193-.927.378-1.225.554-.51.245-.905.14-1.186-.317l-.21-.368c-.281-.527-.185-.922.29-1.186.403-.228.97-.474 1.699-.738.728-.263 1.602-.395 2.62-.395 1.67 0 2.96.444 3.874 1.33.913.888 1.37 2.183 1.37 3.886v7.561c0 .58-.29.87-.87.87h-.659c-.58 0-.869-.29-.869-.87v-1.132c0-.106.009-.194.026-.264l.053-.21h-.053a5.33 5.33 0 0 1-1 1.396c-.352.35-.8.671-1.344.961-.545.29-1.212.435-2.002.435-.58 0-1.142-.088-1.686-.264a4.28 4.28 0 0 1-1.436-.777 3.876 3.876 0 0 1-.988-1.238c-.246-.483-.369-1.04-.369-1.673zm2.582-.21c0 .526.206 1.014.619 1.462.413.447 1.032.671 1.857.671a3.01 3.01 0 0 0 1.515-.382 3.642 3.642 0 0 0 1.133-1 4.84 4.84 0 0 0 .711-1.37c.167-.501.25-.997.25-1.49v-.579h-.685c-.474 0-1.018.022-1.633.066a7.748 7.748 0 0 0-1.765.33 3.647 3.647 0 0 0-1.423.803c-.386.36-.58.856-.58 1.488zm12.118-8.615c0-.58.29-.87.87-.87h.737c.58 0 .87.29.87.87v1.185c0 .176-.018.352-.053.527a.98.98 0 0 0-.026.237h.052c.123-.28.32-.606.593-.975.272-.368.62-.71 1.04-1.027a6.209 6.209 0 0 1 1.476-.803c.562-.22 1.212-.33 1.95-.33 1.58 0 2.735.426 3.464 1.278.729.852 1.093 2.13 1.093 3.833v7.666c0 .58-.29.87-.87.87h-.816c-.58 0-.87-.29-.87-.87v-7.086c0-.475-.03-.914-.091-1.318a2.928 2.928 0 0 0-.356-1.053 1.873 1.873 0 0 0-.764-.712c-.334-.175-.764-.263-1.291-.263-.65 0-1.247.127-1.791.382a4.36 4.36 0 0 0-1.41 1.04c-.395.44-.702.962-.922 1.568a5.64 5.64 0 0 0-.33 1.936v5.506c0 .58-.29.87-.869.87h-.816c-.58 0-.87-.29-.87-.87V59.627zm14.753 5.796c0-1.054.15-2.011.448-2.872.299-.86.716-1.594 1.252-2.2a5.604 5.604 0 0 1 1.91-1.41 5.812 5.812 0 0 1 2.423-.5c.773 0 1.418.119 1.937.356.518.237.944.505 1.277.803.387.334.694.712.922 1.133h.053l-.053-.263a1.408 1.408 0 0 1-.026-.277v-5.835c0-.58.29-.87.87-.87h.816c.58 0 .87.29.87.87v16.86c0 .58-.29.87-.87.87h-.685c-.58 0-.87-.272-.87-.817v-.764c0-.228.01-.386.027-.474 0-.07.009-.132.026-.185h-.052c-.246.492-.571.923-.975 1.291-.351.317-.804.606-1.357.87-.553.263-1.242.395-2.068.395-.896 0-1.708-.171-2.437-.514a5.32 5.32 0 0 1-1.857-1.436c-.51-.614-.9-1.348-1.172-2.2-.273-.851-.409-1.795-.409-2.831zm2.608 0c0 .72.093 1.374.277 1.962.184.589.444 1.09.777 1.502a3.56 3.56 0 0 0 1.186.961c.456.229.966.343 1.528.343.491 0 .97-.092 1.436-.277.465-.184.873-.47 1.225-.856.35-.386.636-.882.856-1.488.22-.606.329-1.33.329-2.174 0-.597-.079-1.177-.237-1.739a4.743 4.743 0 0 0-.711-1.501 3.734 3.734 0 0 0-1.186-1.067c-.474-.272-1.027-.408-1.66-.408-.526 0-1.018.105-1.475.316-.457.21-.86.518-1.212.922-.351.404-.628.9-.83 1.488-.202.589-.303 1.26-.303 2.016zm19.548 0c0-1.054.171-2.011.514-2.872.342-.86.808-1.594 1.396-2.2a6.132 6.132 0 0 1 2.108-1.41c.816-.333 1.699-.5 2.647-.5.914 0 1.73.158 2.45.474a4.98 4.98 0 0 1 1.805 1.318c.483.562.852 1.23 1.107 2.002.254.773.382 1.624.382 2.555a.886.886 0 0 1-.25.633.85.85 0 0 1-.646.263h-8.905c.035.72.185 1.361.448 1.923a4.485 4.485 0 0 0 1.028 1.423c.421.386.9.676 1.435.87a4.97 4.97 0 0 0 1.7.289c.737 0 1.378-.119 1.923-.356.544-.237.966-.47 1.264-.698.527-.28.922-.184 1.186.29l.237.395c.14.228.189.444.145.646-.044.202-.18.373-.408.513a7.474 7.474 0 0 1-1.752.922c-.378.14-.8.26-1.265.356a7.316 7.316 0 0 1-1.488.145c-1.054 0-2.011-.18-2.872-.54a6.846 6.846 0 0 1-2.226-1.475 6.542 6.542 0 0 1-1.45-2.213 7.31 7.31 0 0 1-.513-2.753zM271.611 64c-.035-1.177-.364-2.064-.988-2.66-.623-.598-1.374-.897-2.252-.897-.984 0-1.831.312-2.543.936-.71.623-1.163 1.497-1.356 2.621h7.14zm4.531 1.423c0-1.054.15-2.011.448-2.872.299-.86.716-1.594 1.252-2.2a5.57 5.57 0 0 1 1.923-1.41 5.902 5.902 0 0 1 2.437-.5c.79 0 1.453.132 1.989.395.535.264.979.545 1.33.843.386.37.703.782.948 1.239h.053a.866.866 0 0 1-.026-.211.98.98 0 0 1-.027-.237v-.975c0-.492.29-.738.87-.738h.632c.58 0 .87.29.87.87v16.86c0 .58-.29.87-.87.87h-.817c-.58 0-.869-.29-.869-.87v-5.875c0-.14.009-.263.026-.368.018-.123.036-.229.053-.316h-.053a3.826 3.826 0 0 1-.948 1.238c-.351.316-.8.601-1.344.856s-1.229.382-2.054.382c-.879 0-1.673-.171-2.385-.514a5.39 5.39 0 0 1-1.83-1.436c-.51-.614-.905-1.348-1.186-2.2-.281-.851-.422-1.795-.422-2.831zm2.609 0c0 .72.092 1.374.276 1.962.185.589.444 1.09.777 1.502a3.56 3.56 0 0 0 1.186.961c.456.229.966.343 1.528.343.492 0 .97-.092 1.436-.277.465-.184.873-.47 1.225-.856.35-.386.636-.882.856-1.488.22-.606.33-1.33.33-2.174 0-.597-.08-1.177-.238-1.739a4.743 4.743 0 0 0-.711-1.501 3.734 3.734 0 0 0-1.186-1.067c-.474-.272-1.027-.408-1.66-.408-.526 0-1.018.105-1.475.316-.456.21-.86.518-1.212.922-.35.404-.628.9-.83 1.488-.202.589-.302 1.26-.302 2.016zm13.646-5.796c0-.58.29-.87.87-.87h.816c.562 0 .843.29.843.87v7.086c0 .457.03.887.092 1.291.062.404.185.756.37 1.054.184.299.438.536.763.711.325.176.751.264 1.278.264.685 0 1.295-.14 1.83-.422.537-.28.993-.65 1.37-1.106.378-.457.664-.988.857-1.594a6.25 6.25 0 0 0 .29-1.91v-5.374c0-.58.29-.87.87-.87h.816c.58 0 .87.29.87.87v11.591c0 .58-.29.87-.87.87h-.738c-.58 0-.87-.29-.87-.87v-1.462c0-.096.01-.18.027-.25.018-.07.035-.15.053-.237h-.053c-.14.334-.356.685-.645 1.054a5.36 5.36 0 0 1-1.067 1.014 5.964 5.964 0 0 1-1.45.764 5.114 5.114 0 0 1-1.79.303c-1.511 0-2.644-.408-3.4-1.225-.754-.817-1.132-2.112-1.132-3.886v-7.666zm16.465-3.53c-.58 0-.869-.29-.869-.87v-.87c0-.579.29-.869.87-.869h.895c.58 0 .87.29.87.87v.87c0 .579-.29.869-.87.869h-.896zm-.843 3.53c0-.58.29-.87.87-.87h.816c.58 0 .87.29.87.87v11.591c0 .58-.29.87-.87.87h-.816c-.58 0-.87-.29-.87-.87V59.627zm6.876 1.343h-.922c-.562 0-.843-.29-.843-.87v-.342c0-.58.29-.869.87-.869h.948v-2.924c0-.58.29-.87.87-.87h.763c.58 0 .87.29.87.87v2.924h2.318c.58 0 .87.29.87.87v.342c0 .58-.281.87-.843.87h-2.345v5.927c0 .632.088 1.141.263 1.528.176.386.391.685.646.896.254.21.527.355.816.434.29.08.558.128.804.145.351.035.593.114.724.237.132.123.198.334.198.633v.553c0 .58-.351.87-1.054.87-.667 0-1.3-.097-1.897-.29a4.274 4.274 0 0 1-1.567-.896 4.45 4.45 0 0 1-1.08-1.528c-.272-.615-.409-1.344-.409-2.187V60.97zm7.298 7.482c0-.685.132-1.278.395-1.778s.615-.918 1.054-1.251c.439-.334.935-.606 1.488-.817a9.447 9.447 0 0 1 1.726-.474 15.592 15.592 0 0 1 1.752-.211c.57-.035 1.084-.053 1.541-.053h.685v-.342c0-.545-.075-1.006-.224-1.383a2.29 2.29 0 0 0-.62-.91 2.331 2.331 0 0 0-.921-.487 4.258 4.258 0 0 0-1.133-.145c-.667 0-1.26.097-1.778.29-.518.193-.927.378-1.225.554-.51.245-.905.14-1.186-.317l-.21-.368c-.282-.527-.185-.922.29-1.186.403-.228.97-.474 1.698-.738.73-.263 1.603-.395 2.622-.395 1.668 0 2.96.444 3.872 1.33.914.888 1.37 2.183 1.37 3.886v7.561c0 .58-.29.87-.869.87h-.659c-.58 0-.869-.29-.869-.87v-1.132c0-.106.009-.194.026-.264l.053-.21h-.053a5.33 5.33 0 0 1-1 1.396c-.352.35-.8.671-1.344.961-.545.29-1.212.435-2.003.435-.58 0-1.141-.088-1.686-.264a4.28 4.28 0 0 1-1.435-.777 3.876 3.876 0 0 1-.988-1.238c-.246-.483-.37-1.04-.37-1.673zm2.582-.21c0 .526.206 1.014.619 1.462.412.447 1.032.671 1.857.671a3.01 3.01 0 0 0 1.515-.382 3.642 3.642 0 0 0 1.133-1 4.84 4.84 0 0 0 .711-1.37c.167-.501.25-.997.25-1.49v-.579h-.685c-.474 0-1.018.022-1.633.066a7.748 7.748 0 0 0-1.765.33 3.647 3.647 0 0 0-1.423.803c-.386.36-.58.856-.58 1.488zm12.145-13.884c0-.58.29-.87.869-.87h.817c.562 0 .843.29.843.87v5.4c0 .176-.005.33-.014.461a3.66 3.66 0 0 1-.04.356 2.286 2.286 0 0 0-.025.316h.052c.246-.456.571-.86.975-1.212.351-.298.804-.58 1.357-.843.553-.263 1.225-.395 2.015-.395.878 0 1.677.171 2.398.514.72.342 1.334.817 1.844 1.423.509.605.9 1.339 1.172 2.2.272.86.408 1.8.408 2.818 0 1.072-.149 2.038-.448 2.898-.298.86-.72 1.594-1.264 2.2a5.74 5.74 0 0 1-1.923 1.41c-.738.333-1.537.5-2.398.5-.79 0-1.453-.132-1.989-.395a5.814 5.814 0 0 1-1.33-.87 4.126 4.126 0 0 1-.948-1.264h-.053c0 .07.009.14.026.21.035.176.053.37.053.58v.659c0 .51-.29.764-.87.764h-.658c-.58 0-.87-.29-.87-.87v-16.86zm2.476 11.065c0 .614.079 1.207.237 1.778.158.57.39 1.08.698 1.528.308.448.694.803 1.16 1.067.465.263 1.014.395 1.646.395.527 0 1.027-.105 1.502-.316.474-.21.886-.518 1.238-.922.351-.404.628-.9.83-1.489.202-.588.303-1.26.303-2.015 0-.72-.093-1.374-.277-1.963a4.501 4.501 0 0 0-.777-1.501 3.521 3.521 0 0 0-1.199-.962 3.393 3.393 0 0 0-1.515-.342c-.51 0-.992.092-1.449.276-.456.185-.865.47-1.225.856-.36.387-.645.879-.856 1.476-.21.597-.316 1.308-.316 2.134zm13.093-11.065c0-.58.29-.87.87-.87h.816c.58 0 .87.29.87.87v13.778c0 .369.035.667.105.896.07.228.167.404.29.527a.97.97 0 0 0 .395.25c.14.044.281.075.422.092.193.035.355.11.487.224s.198.294.198.54v.632c0 .281-.066.501-.198.659-.132.158-.365.237-.698.237a6.33 6.33 0 0 1-1.16-.118 2.846 2.846 0 0 1-1.159-.5c-.35-.256-.645-.629-.882-1.12-.237-.492-.356-1.16-.356-2.003V54.358zm6.06 11.065c0-1.054.17-2.011.513-2.872.343-.86.808-1.594 1.397-2.2a6.132 6.132 0 0 1 2.107-1.41c.817-.333 1.7-.5 2.648-.5.913 0 1.73.158 2.45.474a4.98 4.98 0 0 1 1.804 1.318c.483.562.852 1.23 1.107 2.002.255.773.382 1.624.382 2.555a.886.886 0 0 1-.25.633.85.85 0 0 1-.646.263h-8.904c.035.72.184 1.361.448 1.923a4.486 4.486 0 0 0 1.027 1.423c.421.386.9.676 1.436.87a4.97 4.97 0 0 0 1.699.289c.738 0 1.379-.119 1.923-.356.545-.237.966-.47 1.265-.698.527-.28.922-.184 1.185.29l.237.395c.14.228.19.444.145.646-.044.202-.18.373-.408.513a7.473 7.473 0 0 1-1.752.922c-.378.14-.8.26-1.265.356a7.316 7.316 0 0 1-1.488.145c-1.054 0-2.011-.18-2.872-.54a6.846 6.846 0 0 1-2.226-1.475 6.542 6.542 0 0 1-1.449-2.213 7.31 7.31 0 0 1-.513-2.753zM368.4 64c-.035-1.177-.364-2.064-.987-2.66-.624-.598-1.375-.897-2.253-.897-.983 0-1.83.312-2.542.936-.712.623-1.164 1.497-1.357 2.621h7.14zm12.514-3.03h-.843c-.58 0-.87-.29-.87-.87v-.342c0-.58.29-.869.87-.869h.843v-.632c0-1.054.189-1.901.567-2.542.377-.642.82-1.138 1.33-1.489a4.347 4.347 0 0 1 1.58-.698c.545-.114.993-.171 1.344-.171h.316c.58 0 .87.29.87.87v.5c0 .298-.08.509-.237.632-.158.123-.387.202-.685.237a7.509 7.509 0 0 0-.804.105c-.29.053-.562.176-.817.37-.254.192-.47.469-.645.83-.176.36-.263.846-.263 1.461v.527h2.292c.58 0 .869.29.869.87v.342c0 .58-.29.87-.87.87h-2.291v10.247c0 .58-.29.87-.87.87h-.816c-.58 0-.87-.29-.87-.87V60.97zm7.745-1.343c0-.58.29-.87.87-.87h.817c.562 0 .843.29.843.87v7.086c0 .457.03.887.092 1.291.061.404.184.756.369 1.054.184.299.439.536.764.711.325.176.75.264 1.277.264.685 0 1.296-.14 1.831-.422.536-.28.993-.65 1.37-1.106.378-.457.663-.988.856-1.594a6.25 6.25 0 0 0 .29-1.91v-5.374c0-.58.29-.87.87-.87h.816c.58 0 .87.29.87.87v11.591c0 .58-.29.87-.87.87h-.737c-.58 0-.87-.29-.87-.87v-1.462c0-.096.009-.18.027-.25.017-.07.035-.15.052-.237h-.052c-.14.334-.356.685-.646 1.054a5.36 5.36 0 0 1-1.067 1.014 5.964 5.964 0 0 1-1.449.764 5.114 5.114 0 0 1-1.791.303c-1.51 0-2.643-.408-3.399-1.225-.755-.817-1.133-2.112-1.133-3.886v-7.666zm16.255 1.343h-.922c-.562 0-.843-.29-.843-.87v-.342c0-.58.29-.869.87-.869h.948v-2.924c0-.58.29-.87.87-.87h.763c.58 0 .87.29.87.87v2.924h2.318c.58 0 .87.29.87.87v.342c0 .58-.282.87-.844.87h-2.344v5.927c0 .632.087 1.141.263 1.528.176.386.39.685.645.896.255.21.527.355.817.434.29.08.558.128.804.145.35.035.592.114.724.237.132.123.198.334.198.633v.553c0 .58-.352.87-1.054.87-.667 0-1.3-.097-1.897-.29a4.274 4.274 0 0 1-1.567-.896 4.45 4.45 0 0 1-1.08-1.528c-.273-.615-.409-1.344-.409-2.187V60.97zm8.22-1.343c0-.58.29-.87.87-.87h.816c.562 0 .843.29.843.87v7.086c0 .457.03.887.092 1.291.061.404.184.756.369 1.054.184.299.439.536.764.711.325.176.75.264 1.278.264.684 0 1.295-.14 1.83-.422.536-.28.993-.65 1.37-1.106.378-.457.663-.988.857-1.594a6.25 6.25 0 0 0 .29-1.91v-5.374c0-.58.29-.87.869-.87h.816c.58 0 .87.29.87.87v11.591c0 .58-.29.87-.87.87h-.737c-.58 0-.87-.29-.87-.87v-1.462c0-.096.01-.18.027-.25s.035-.15.052-.237h-.052c-.14.334-.356.685-.646 1.054a5.36 5.36 0 0 1-1.067 1.014 5.964 5.964 0 0 1-1.449.764 5.114 5.114 0 0 1-1.791.303c-1.51 0-2.643-.408-3.398-1.225-.756-.817-1.133-2.112-1.133-3.886v-7.666zm15.622 0c0-.58.29-.87.87-.87h.737c.58 0 .87.29.87.87v1.528c0 .14-.005.272-.014.395a2.575 2.575 0 0 1-.04.316 1.774 1.774 0 0 0-.026.29h.053c.14-.44.338-.87.593-1.291.255-.422.558-.795.909-1.12a4.588 4.588 0 0 1 1.172-.79c.43-.202.9-.303 1.41-.303.562 0 .843.29.843.87v.737c0 .58-.317.87-.949.87-.65 0-1.216.162-1.699.487a4.227 4.227 0 0 0-1.212 1.251 5.706 5.706 0 0 0-.724 1.752 8.386 8.386 0 0 0-.237 1.963v4.636c0 .58-.29.87-.87.87h-.817c-.58 0-.869-.29-.869-.87V59.627zm8.114 5.796c0-1.054.171-2.011.514-2.872.342-.86.808-1.594 1.396-2.2a6.132 6.132 0 0 1 2.108-1.41c.817-.333 1.699-.5 2.647-.5.914 0 1.73.158 2.45.474a4.98 4.98 0 0 1 1.805 1.318c.483.562.852 1.23 1.107 2.002.254.773.382 1.624.382 2.555a.886.886 0 0 1-.25.633.85.85 0 0 1-.646.263h-8.905c.036.72.185 1.361.448 1.923a4.485 4.485 0 0 0 1.028 1.423c.421.386.9.676 1.435.87a4.97 4.97 0 0 0 1.7.289c.737 0 1.378-.119 1.923-.356.544-.237.966-.47 1.264-.698.527-.28.922-.184 1.186.29l.237.395c.14.228.189.444.145.646-.044.202-.18.373-.408.513a7.473 7.473 0 0 1-1.752.922c-.378.14-.8.26-1.265.356a7.316 7.316 0 0 1-1.488.145c-1.054 0-2.011-.18-2.872-.54a6.846 6.846 0 0 1-2.226-1.475 6.542 6.542 0 0 1-1.449-2.213 7.31 7.31 0 0 1-.514-2.753zM446.724 64c-.035-1.177-.364-2.064-.988-2.66-.623-.598-1.374-.897-2.252-.897-.984 0-1.831.312-2.542.936-.712.623-1.164 1.497-1.357 2.621h7.14z" fill="#434343"/><path d="M.419 20.062c0-1.748.244-3.325.731-4.73.487-1.404 1.175-2.608 2.064-3.612a9.24 9.24 0 0 1 3.139-2.322c1.204-.544 2.537-.817 3.999-.817 1.204 0 2.214.165 3.031.495.818.33 1.47.695 1.957 1.096a6.561 6.561 0 0 1 1.419 1.548h.086a1.414 1.414 0 0 1-.043-.344 1.701 1.701 0 0 1-.043-.408V2.303c0-1.204.588-1.806 1.763-1.806h1.892c1.175 0 1.763.602 1.763 1.806v26.918c0 1.204-.588 1.806-1.763 1.806h-1.591c-1.175 0-1.763-.544-1.763-1.634v-.86c0-.286.014-.473.043-.559 0-.086.014-.157.043-.215h-.086a7.009 7.009 0 0 1-1.548 1.892c-.545.488-1.254.925-2.129 1.312-.874.387-1.942.58-3.203.58-1.49 0-2.838-.279-4.042-.838a8.837 8.837 0 0 1-3.074-2.344c-.846-1.003-1.498-2.214-1.957-3.633-.459-1.419-.688-2.974-.688-4.666zm5.504 0c0 2.093.502 3.763 1.505 5.01 1.003 1.247 2.322 1.87 3.956 1.87.717 0 1.405-.136 2.064-.408a4.964 4.964 0 0 0 1.763-1.247c.516-.559.924-1.276 1.225-2.15.302-.874.452-1.914.452-3.118 0-.86-.115-1.69-.344-2.494a7.073 7.073 0 0 0-1.01-2.15 5.116 5.116 0 0 0-1.699-1.526c-.688-.387-1.49-.58-2.408-.58-.745 0-1.448.15-2.107.451a5.13 5.13 0 0 0-1.741 1.311c-.502.574-.903 1.283-1.204 2.129-.302.846-.452 1.813-.452 2.902zM31.551 5.356c-1.175 0-1.763-.587-1.763-1.763v-1.29c0-1.204.588-1.806 1.763-1.806h1.892c1.204 0 1.806.602 1.806 1.806v1.29c0 1.176-.602 1.763-1.806 1.763h-1.892zm-1.763 5.547c0-1.204.588-1.806 1.763-1.806h1.892c1.175 0 1.763.602 1.763 1.806v18.318c0 1.204-.588 1.806-1.763 1.806h-1.892c-1.175 0-1.763-.602-1.763-1.806V10.903zm11.051.258c-.23-.63-.215-1.132.043-1.505.258-.372.717-.559 1.376-.559h2.021c1.06 0 1.734.502 2.021 1.505l4.085 12.083c.115.316.215.674.301 1.075.086.402.172.76.258 1.075.086.402.172.789.258 1.161h.086c.057-.372.129-.76.215-1.16.057-.316.136-.674.236-1.076.1-.4.208-.76.323-1.075l4.085-12.083c.287-1.003.96-1.505 2.021-1.505h2.021c.66 0 1.125.187 1.397.56.273.372.294.874.065 1.504l-6.622 18.404c-.315.975-.989 1.462-2.021 1.462h-3.44c-1.06 0-1.734-.487-2.021-1.462l-6.708-18.404zm24.983 8.901c0-1.69.272-3.239.817-4.644.545-1.404 1.304-2.615 2.279-3.633.975-1.018 2.15-1.806 3.526-2.365 1.376-.559 2.881-.839 4.515-.839 1.548 0 2.931.266 4.15.796 1.218.53 2.235 1.254 3.052 2.171.818.918 1.441 2.021 1.871 3.311.43 1.29.645 2.68.645 4.171 0 .488-.18.918-.538 1.29-.358.373-.81.56-1.354.56H71.412c.086 1.003.322 1.877.71 2.622a6.152 6.152 0 0 0 1.461 1.871 6.102 6.102 0 0 0 2.021 1.14 7.37 7.37 0 0 0 2.387.386c1.003 0 1.913-.157 2.73-.473.818-.315 1.484-.63 2-.946.545-.258 1.01-.344 1.397-.258.388.086.724.373 1.011.86l.516.86c.545 1.032.344 1.835-.602 2.408-.717.46-1.706.94-2.967 1.441-1.261.502-2.752.752-4.472.752-1.806 0-3.44-.308-4.902-.924-1.462-.616-2.702-1.448-3.72-2.494a10.871 10.871 0 0 1-2.343-3.655 11.974 11.974 0 0 1-.817-4.408zm15.437-2.494c-.057-1.548-.494-2.744-1.312-3.59-.817-.846-1.856-1.269-3.117-1.269-1.405 0-2.573.445-3.505 1.333-.931.89-1.526 2.064-1.784 3.526h9.718zm11.524-6.665c0-1.204.588-1.806 1.763-1.806h1.677c1.204 0 1.806.602 1.806 1.806v2.064c0 .23-.007.43-.022.602-.014.172-.035.33-.064.473a2.188 2.188 0 0 0-.043.43h.086c.2-.659.502-1.318.903-1.978a8.644 8.644 0 0 1 1.44-1.784 7.403 7.403 0 0 1 1.85-1.29 4.874 4.874 0 0 1 2.171-.495c.602 0 1.025.151 1.268.452.244.301.366.752.366 1.354v1.677c0 1.204-.616 1.806-1.849 1.806-1.003 0-1.878.23-2.623.688a5.85 5.85 0 0 0-1.849 1.806 8.448 8.448 0 0 0-1.097 2.537c-.243.946-.365 1.921-.365 2.924v7.052c0 1.204-.588 1.806-1.763 1.806h-1.892c-1.175 0-1.763-.602-1.763-1.806V10.903zm17.63 18.404c-.487-.286-.76-.645-.817-1.075-.057-.43.072-.888.387-1.376l.516-.774c.315-.458.666-.716 1.053-.774.388-.057.853.058 1.398.344.516.287 1.182.61 2 .968.817.358 1.784.537 2.902.537.946 0 1.691-.2 2.236-.602.545-.4.817-.946.817-1.634 0-.602-.265-1.082-.796-1.44-.53-.358-1.203-.688-2.02-.989l-2.624-.968a13.934 13.934 0 0 1-2.623-1.29 6.652 6.652 0 0 1-2.02-1.978c-.53-.802-.796-1.834-.796-3.096 0-1.06.222-2.006.666-2.838a5.964 5.964 0 0 1 1.806-2.064c.76-.544 1.649-.96 2.666-1.247 1.018-.286 2.1-.43 3.247-.43 1.462 0 2.702.187 3.72.56 1.017.372 1.813.716 2.386 1.031.487.258.774.602.86 1.032.086.43.014.89-.215 1.376l-.43.774c-.258.516-.588.817-.989.903-.401.086-.874.015-1.419-.215a19.437 19.437 0 0 0-1.763-.709c-.688-.244-1.49-.366-2.408-.366-.946 0-1.677.187-2.193.56-.516.372-.774.902-.774 1.59 0 .602.265 1.09.795 1.462.53.373 1.204.703 2.021.99.818.286 1.692.594 2.623.924.932.33 1.806.752 2.623 1.268a6.652 6.652 0 0 1 2.021 1.978c.53.803.796 1.82.796 3.053 0 .975-.193 1.871-.58 2.688a6.144 6.144 0 0 1-1.678 2.128c-.73.602-1.612 1.075-2.644 1.42-1.032.343-2.179.515-3.44.515-1.777 0-3.275-.258-4.494-.774-1.218-.516-2.157-1.003-2.816-1.462zm23.65-23.95c-1.175 0-1.763-.588-1.763-1.764v-1.29c0-1.204.588-1.806 1.763-1.806h1.892c1.204 0 1.806.602 1.806 1.806v1.29c0 1.176-.602 1.763-1.806 1.763h-1.892zm-1.763 5.546c0-1.204.588-1.806 1.763-1.806h1.892c1.175 0 1.763.602 1.763 1.806v18.318c0 1.204-.588 1.806-1.763 1.806h-1.892c-1.175 0-1.763-.602-1.763-1.806V10.903zm14.19 2.838h-1.161c-1.175 0-1.763-.602-1.763-1.806v-.73c0-1.205.602-1.807 1.806-1.807h1.247V4.926c0-1.204.602-1.806 1.806-1.806h1.72c1.204 0 1.806.602 1.806 1.806v4.472h3.182c1.204 0 1.806.602 1.806 1.806v.731c0 1.204-.588 1.806-1.763 1.806h-3.225v8.514c0 .832.115 1.498.344 2 .23.502.516.903.86 1.204.344.301.724.516 1.14.645.415.129.81.208 1.182.236.66.058 1.125.215 1.397.473.273.258.409.688.409 1.29v1.333c0 .66-.186 1.126-.559 1.398-.373.272-.932.408-1.677.408-.975 0-1.97-.143-2.989-.43a8.014 8.014 0 0 1-2.752-1.376c-.817-.63-1.49-1.454-2.02-2.472s-.796-2.272-.796-3.763v-9.46zm14.921 22.403c.23-.487.516-.795.86-.924s.702-.15 1.075-.065c.2.086.43.172.688.258.258.086.545.13.86.13.803 0 1.505-.294 2.107-.882a5.978 5.978 0 0 0 1.376-2.043l.817-1.935-8.342-19.479c-.287-.63-.301-1.139-.043-1.526s.731-.58 1.419-.58h2.322c1.003 0 1.677.487 2.021 1.461l4.128 11.18c.086.316.18.638.28.968.1.33.193.652.279.967.115.344.2.688.258 1.032h.086c.057-.344.129-.673.215-.989a9.78 9.78 0 0 1 .236-.924c.1-.33.194-.652.28-.968l3.87-11.223c.287-1.003.96-1.505 2.021-1.505h2.15c.66 0 1.125.187 1.397.56.273.372.294.874.065 1.504l-9.03 23.134c-.373 1.004-.846 1.864-1.419 2.58a8.852 8.852 0 0 1-1.892 1.785 7.667 7.667 0 0 1-2.215 1.053 8.504 8.504 0 0 1-2.386.344 6.247 6.247 0 0 1-1.677-.215 20.195 20.195 0 0 1-1.376-.43c-.516-.2-.839-.516-.968-.946-.129-.43-.078-.888.151-1.376l.387-.946zm24.51-16.082c0-1.748.244-3.325.731-4.73.487-1.404 1.175-2.608 2.064-3.612a9.24 9.24 0 0 1 3.139-2.322c1.204-.544 2.537-.817 3.999-.817 1.204 0 2.214.165 3.031.495.818.33 1.47.695 1.957 1.096a6.561 6.561 0 0 1 1.419 1.548h.086a1.414 1.414 0 0 1-.043-.344 1.701 1.701 0 0 1-.043-.408V2.303c0-1.204.588-1.806 1.763-1.806h1.892c1.175 0 1.763.602 1.763 1.806v26.918c0 1.204-.588 1.806-1.763 1.806h-1.591c-1.175 0-1.763-.544-1.763-1.634v-.86c0-.286.014-.473.043-.559 0-.086.014-.157.043-.215h-.086a7.009 7.009 0 0 1-1.548 1.892c-.545.488-1.254.925-2.129 1.312-.874.387-1.942.58-3.203.58-1.49 0-2.838-.279-4.042-.838a8.837 8.837 0 0 1-3.075-2.344c-.845-1.003-1.497-2.214-1.956-3.633-.459-1.419-.688-2.974-.688-4.666zm5.504 0c0 2.093.502 3.763 1.505 5.01 1.003 1.247 2.322 1.87 3.956 1.87.717 0 1.405-.136 2.064-.408a4.964 4.964 0 0 0 1.763-1.247c.516-.559.924-1.276 1.225-2.15.302-.874.452-1.914.452-3.118 0-.86-.115-1.69-.344-2.494a7.074 7.074 0 0 0-1.01-2.15 5.116 5.116 0 0 0-1.699-1.526c-.688-.387-1.49-.58-2.408-.58-.745 0-1.448.15-2.107.451a5.13 5.13 0 0 0-1.742 1.311c-.501.574-.903 1.283-1.204 2.129-.3.846-.451 1.813-.451 2.902zm22.188 4.902c0-1.06.2-1.985.602-2.773a6.202 6.202 0 0 1 1.634-2.021 8.792 8.792 0 0 1 2.343-1.355 17.181 17.181 0 0 1 2.731-.817c.946-.2 1.892-.336 2.838-.408a35.398 35.398 0 0 1 2.666-.108h.903v-.516c0-1.433-.401-2.436-1.204-3.01-.803-.573-1.763-.86-2.881-.86-.917 0-1.777.137-2.58.409-.803.272-1.462.552-1.978.838-1.118.488-1.92.244-2.408-.73l-.43-.818c-.545-1.06-.315-1.863.688-2.408.717-.372 1.684-.766 2.902-1.182 1.219-.416 2.645-.624 4.279-.624 2.867 0 5.095.76 6.686 2.28 1.592 1.519 2.387 3.669 2.387 6.45v11.91c0 1.204-.602 1.806-1.806 1.806h-1.462c-1.175 0-1.763-.602-1.763-1.806v-.86c0-.344.014-.573.043-.688 0-.114.014-.2.043-.258h-.086a8.115 8.115 0 0 1-1.634 2.064c-.573.516-1.29.99-2.15 1.42-.86.43-1.892.644-3.096.644a8.24 8.24 0 0 1-2.817-.473 7.179 7.179 0 0 1-2.3-1.333 6.369 6.369 0 0 1-1.57-2.064c-.387-.802-.58-1.705-.58-2.709zm5.418-.473c0 .746.28 1.412.838 2 .56.588 1.384.881 2.473.881.774 0 1.47-.172 2.085-.516a5.089 5.089 0 0 0 1.57-1.354 6.73 6.73 0 0 0 1.01-1.87 6.031 6.031 0 0 0 .366-2.022v-.817h-.903c-.688 0-1.462.043-2.322.13-.86.085-1.67.257-2.43.515-.76.258-1.397.631-1.913 1.118-.516.488-.774 1.133-.774 1.935zm21.93-10.75H239.8c-1.175 0-1.763-.602-1.763-1.806v-.73c0-1.205.602-1.807 1.806-1.807h1.247V4.926c0-1.204.602-1.806 1.806-1.806h1.72c1.204 0 1.806.602 1.806 1.806v4.472h3.182c1.204 0 1.806.602 1.806 1.806v.731c0 1.204-.588 1.806-1.763 1.806h-3.225v8.514c0 .832.115 1.498.344 2 .23.502.516.903.86 1.204.344.301.724.516 1.14.645.415.129.81.208 1.182.236.66.058 1.125.215 1.397.473.273.258.409.688.409 1.29v1.333c0 .66-.186 1.126-.559 1.398-.373.272-.932.408-1.677.408-.975 0-1.97-.143-2.989-.43a8.014 8.014 0 0 1-2.752-1.376c-.817-.63-1.49-1.454-2.02-2.472s-.796-2.272-.796-3.763v-9.46zm14.921 11.223c0-1.06.2-1.985.602-2.773a6.202 6.202 0 0 1 1.634-2.021 8.792 8.792 0 0 1 2.343-1.355 17.181 17.181 0 0 1 2.731-.817c.946-.2 1.892-.336 2.838-.408a35.398 35.398 0 0 1 2.666-.108h.903v-.516c0-1.433-.401-2.436-1.204-3.01-.803-.573-1.763-.86-2.881-.86-.917 0-1.777.137-2.58.409-.803.272-1.462.552-1.978.838-1.118.488-1.92.244-2.408-.73l-.43-.818c-.545-1.06-.315-1.863.688-2.408.717-.372 1.684-.766 2.902-1.182 1.219-.416 2.645-.624 4.279-.624 2.867 0 5.095.76 6.686 2.28 1.592 1.519 2.387 3.669 2.387 6.45v11.91c0 1.204-.602 1.806-1.806 1.806h-1.462c-1.175 0-1.763-.602-1.763-1.806v-.86c0-.344.014-.573.043-.688 0-.114.014-.2.043-.258h-.086a8.115 8.115 0 0 1-1.634 2.064c-.573.516-1.29.99-2.15 1.42-.86.43-1.892.644-3.096.644a8.24 8.24 0 0 1-2.817-.473 7.179 7.179 0 0 1-2.3-1.333 6.37 6.37 0 0 1-1.57-2.064c-.387-.802-.58-1.705-.58-2.709zm5.418-.473c0 .746.28 1.412.838 2 .56.588 1.384.881 2.473.881.774 0 1.47-.172 2.085-.516a5.089 5.089 0 0 0 1.57-1.354 6.73 6.73 0 0 0 1.01-1.87 6.031 6.031 0 0 0 .366-2.022v-.817h-.903c-.688 0-1.462.043-2.322.13-.86.085-1.67.257-2.43.515-.76.258-1.397.631-1.913 1.118-.516.488-.774 1.133-.774 1.935z" fill="#045781"/><path d="M282.284 2.303c0-1.204.602-1.806 1.806-1.806h1.849c1.204 0 1.806.602 1.806 1.806v14.534h2.709l4.558-6.536c.487-.802 1.204-1.204 2.15-1.204h2.064c.745 0 1.218.215 1.419.645.2.43.1.932-.301 1.505l-5.461 7.654v.086l6.45 9.89c.373.631.451 1.147.236 1.548-.215.402-.695.602-1.44.602h-2.322c-.946 0-1.648-.415-2.107-1.247l-5.117-8.342h-2.838v7.783c0 1.204-.602 1.806-1.806 1.806h-1.849c-1.204 0-1.806-.602-1.806-1.806V2.303zm26.883 3.053c-1.175 0-1.763-.587-1.763-1.763v-1.29c0-1.204.588-1.806 1.763-1.806h1.892c1.204 0 1.806.602 1.806 1.806v1.29c0 1.176-.602 1.763-1.806 1.763h-1.892zm-1.763 5.547c0-1.204.588-1.806 1.763-1.806h1.892c1.176 0 1.763.602 1.763 1.806v18.318c0 1.204-.587 1.806-1.763 1.806h-1.892c-1.175 0-1.763-.602-1.763-1.806V10.903zm11.747 9.16c0-1.75.244-3.326.731-4.73.488-1.405 1.176-2.61 2.064-3.613a9.24 9.24 0 0 1 3.14-2.322c1.203-.544 2.536-.817 3.998-.817 1.204 0 2.215.165 3.032.495.817.33 1.469.695 1.956 1.096a6.561 6.561 0 0 1 1.42 1.548h.085a1.414 1.414 0 0 1-.043-.344 1.701 1.701 0 0 1-.043-.408V2.303c0-1.204.588-1.806 1.763-1.806h1.892c1.176 0 1.763.602 1.763 1.806v26.918c0 1.204-.587 1.806-1.763 1.806h-1.59c-1.176 0-1.764-.544-1.764-1.634v-.86c0-.286.015-.473.043-.559 0-.086.015-.157.043-.215h-.086a7.009 7.009 0 0 1-1.548 1.892c-.544.488-1.254.925-2.128 1.312-.874.387-1.942.58-3.204.58-1.49 0-2.838-.279-4.042-.838a8.837 8.837 0 0 1-3.074-2.344c-.846-1.003-1.498-2.214-1.957-3.633-.458-1.419-.688-2.974-.688-4.666zm5.504 0c0 2.092.502 3.762 1.505 5.009 1.004 1.247 2.322 1.87 3.956 1.87.717 0 1.405-.136 2.064-.408a4.964 4.964 0 0 0 1.763-1.247c.516-.559.925-1.276 1.226-2.15.3-.874.451-1.914.451-3.118 0-.86-.114-1.69-.344-2.494a7.074 7.074 0 0 0-1.01-2.15 5.116 5.116 0 0 0-1.699-1.526c-.688-.387-1.49-.58-2.408-.58-.745 0-1.447.15-2.107.451a5.13 5.13 0 0 0-1.741 1.311c-.502.574-.903 1.283-1.204 2.129-.301.846-.452 1.813-.452 2.902zm23.4 9.244c-.487-.286-.76-.645-.816-1.075-.058-.43.071-.888.387-1.376l.516-.774c.315-.458.666-.716 1.053-.774.387-.057.853.058 1.398.344.516.287 1.182.61 2 .968.816.358 1.784.537 2.902.537.946 0 1.69-.2 2.236-.602.544-.4.817-.946.817-1.634 0-.602-.266-1.082-.796-1.44-.53-.358-1.204-.688-2.02-.989l-2.624-.968a13.934 13.934 0 0 1-2.623-1.29 6.652 6.652 0 0 1-2.02-1.978c-.531-.802-.796-1.834-.796-3.096 0-1.06.222-2.006.666-2.838a5.964 5.964 0 0 1 1.806-2.064c.76-.544 1.648-.96 2.666-1.247 1.018-.286 2.1-.43 3.247-.43 1.462 0 2.701.187 3.72.56 1.017.372 1.812.716 2.386 1.031.487.258.774.602.86 1.032.086.43.014.89-.215 1.376l-.43.774c-.258.516-.588.817-.99.903-.4.086-.874.015-1.418-.215a19.437 19.437 0 0 0-1.763-.709c-.688-.244-1.491-.366-2.408-.366-.946 0-1.677.187-2.193.56-.516.372-.774.902-.774 1.59 0 .602.265 1.09.795 1.462.53.373 1.204.703 2.021.99.817.286 1.691.594 2.623.924.932.33 1.806.752 2.623 1.268a6.652 6.652 0 0 1 2.021 1.978c.53.803.796 1.82.796 3.053 0 .975-.194 1.871-.58 2.688a6.144 6.144 0 0 1-1.678 2.128c-.73.602-1.612 1.075-2.644 1.42-1.032.343-2.18.515-3.44.515-1.778 0-3.276-.258-4.494-.774s-2.157-1.003-2.816-1.462z" fill="#C9422C"/><path d="M369.65 27.286c0-1.175.602-1.763 1.806-1.763h1.892c1.204 0 1.806.588 1.806 1.763v1.935c0 1.204-.602 1.806-1.806 1.806h-1.892c-1.204 0-1.806-.602-1.806-1.806v-1.935zm11.403-7.224c0-1.662.315-3.203.946-4.622.63-1.419 1.49-2.63 2.58-3.634 1.09-1.003 2.365-1.791 3.827-2.365 1.462-.573 3.024-.86 4.687-.86 1.663 0 3.225.287 4.687.86a12.38 12.38 0 0 1 3.848 2.365 10.74 10.74 0 0 1 2.602 3.634c.63 1.419.946 2.96.946 4.622 0 1.692-.315 3.24-.946 4.644a11.029 11.029 0 0 1-2.602 3.634 11.866 11.866 0 0 1-3.848 2.365c-1.462.559-3.024.838-4.687.838-1.663 0-3.225-.279-4.687-.838a11.619 11.619 0 0 1-3.827-2.365 11.18 11.18 0 0 1-2.58-3.634c-.63-1.404-.946-2.952-.946-4.644zm5.547 0c0 1.032.172 1.964.516 2.795.344.832.81 1.548 1.397 2.15a6.19 6.19 0 0 0 2.064 1.398c.789.33 1.627.494 2.516.494a6.454 6.454 0 0 0 4.6-1.892 6.537 6.537 0 0 0 1.42-2.15c.344-.83.516-1.763.516-2.795 0-1.003-.172-1.927-.516-2.773a6.485 6.485 0 0 0-1.42-2.172 6.429 6.429 0 0 0-4.6-1.892c-.889 0-1.727.165-2.516.495a6.19 6.19 0 0 0-2.064 1.397 6.66 6.66 0 0 0-1.397 2.172c-.344.846-.516 1.77-.516 2.773zm24.776-9.159c0-1.204.588-1.806 1.763-1.806h1.677c1.204 0 1.806.602 1.806 1.806v2.064c0 .23-.007.43-.021.602a4.2 4.2 0 0 1-.065.473 2.188 2.188 0 0 0-.043.43h.086c.2-.659.502-1.318.903-1.978a8.644 8.644 0 0 1 1.44-1.784 7.403 7.403 0 0 1 1.85-1.29 4.874 4.874 0 0 1 2.171-.495c.602 0 1.025.151 1.269.452.243.301.365.752.365 1.354v1.677c0 1.204-.616 1.806-1.849 1.806-1.003 0-1.878.23-2.623.688a5.85 5.85 0 0 0-1.849 1.806 8.448 8.448 0 0 0-1.096 2.537c-.244.946-.366 1.921-.366 2.924v7.052c0 1.204-.588 1.806-1.763 1.806h-1.892c-1.175 0-1.763-.602-1.763-1.806V10.903zm19.66 24.682c.229-.544.522-.895.88-1.053.36-.158.825-.136 1.398.064.516.201 1.133.387 1.85.56.716.171 1.576.257 2.58.257.83 0 1.626-.093 2.386-.279.76-.186 1.419-.495 1.978-.925a4.604 4.604 0 0 0 1.333-1.655c.33-.674.494-1.498.494-2.473v-2.02c0-.115.015-.23.043-.345 0-.114.015-.243.043-.387h-.086c-.602 1.032-1.39 1.835-2.365 2.408-.974.574-2.193.86-3.655.86-1.605 0-3.024-.293-4.257-.881a9.074 9.074 0 0 1-3.117-2.408c-.846-1.018-1.484-2.2-1.914-3.548-.43-1.347-.645-2.78-.645-4.3 0-1.49.208-2.895.624-4.214.415-1.318 1.039-2.472 1.87-3.461.832-.989 1.864-1.77 3.096-2.344 1.233-.573 2.666-.86 4.3-.86 1.29 0 2.351.18 3.182.538.832.358 1.491.738 1.978 1.14a6.03 6.03 0 0 1 1.333 1.676h.086c-.028-.028-.043-.071-.043-.129V10.56c0-.4.15-.745.452-1.032.3-.286.738-.43 1.311-.43h1.462c1.176 0 1.763.602 1.763 1.806v18.791c0 1.892-.337 3.49-1.01 4.795-.674 1.304-1.548 2.372-2.623 3.203a10.394 10.394 0 0 1-3.655 1.806 15.338 15.338 0 0 1-4.064.56c-1.232 0-2.422-.115-3.569-.345-1.146-.229-2.092-.501-2.838-.817-1.089-.458-1.404-1.232-.946-2.322l.344-.989zm7.954-9.589c.631 0 1.254-.1 1.87-.3a3.872 3.872 0 0 0 1.635-1.054c.473-.502.853-1.161 1.14-1.978.286-.817.43-1.842.43-3.075 0-1.26-.144-2.3-.43-3.117-.287-.817-.674-1.47-1.162-1.957a3.9 3.9 0 0 0-1.698-1.01 7.324 7.324 0 0 0-2.043-.28c-1.72 0-3.024.552-3.913 1.656-.888 1.104-1.333 2.558-1.333 4.364 0 1.978.473 3.598 1.42 4.86.945 1.26 2.307 1.891 4.084 1.891z" fill="#045781"/></g></svg>